<?xml version="1.0" encoding="UTF-8" standalone="no"?>
<!-- Created with Inkscape (http://www.inkscape.org/) -->

<svg
   xmlns:dc="http://purl.org/dc/elements/1.1/"
   xmlns:cc="http://creativecommons.org/ns#"
   xmlns:rdf="http://www.w3.org/1999/02/22-rdf-syntax-ns#"
   xmlns:svg="http://www.w3.org/2000/svg"
   xmlns="http://www.w3.org/2000/svg"
   xmlns:sodipodi="http://sodipodi.sourceforge.net/DTD/sodipodi-0.dtd"
   xmlns:inkscape="http://www.inkscape.org/namespaces/inkscape"
   id="svg3509"
   version="1.1"
   inkscape:version="0.91 r13725"
   width="32.25"
   height="32.25"
   viewBox="0 0 32.25 32.25"
   sodipodi:docname="me_favicon.svg"
   inkscape:export-filename="/Users/WilliamBolton/Desktop/moep_images/36"
   inkscape:export-xdpi="99.99427"
   inkscape:export-ydpi="99.99427">
  <metadata
     id="metadata3515">
    <rdf:RDF>
      <cc:Work
         rdf:about="">
        <dc:format>image/svg+xml</dc:format>
        <dc:type
           rdf:resource="http://purl.org/dc/dcmitype/StillImage" />
      </cc:Work>
    </rdf:RDF>
  </metadata>
  <defs
     id="defs3513" />
  <sodipodi:namedview
     pagecolor="#ffffff"
     bordercolor="#666666"
     borderopacity="1"
     objecttolerance="10"
     gridtolerance="10"
     guidetolerance="10"
     inkscape:pageopacity="0"
     inkscape:pageshadow="2"
     inkscape:window-width="733"
     inkscape:window-height="619"
     id="namedview3511"
     showgrid="false"
     inkscape:zoom="21.330658"
     inkscape:cx="2425.6052"
     inkscape:cy="-270.0156"
     inkscape:window-x="107"
     inkscape:window-y="0"
     inkscape:window-maximized="0"
     inkscape:current-layer="svg3509" />
  <path
     style="fill:#000000"
     d="m 2405.9697,316.14199 c -8e-4,-0.3682 0.2682,-1.08088 0.5977,-1.58374 0.454,-0.69291 0.5365,-1.36894 0.3408,-2.79204 -0.1421,-1.03276 -0.1419,-2.5665 3e-4,-3.40832 0.2439,-1.44332 0.6767,-1.87269 2.2473,-2.22924 0.452,-0.10262 3.1895,-1.48405 3.1827,-1.60609 -0,-0.0474 -0.3402,-1.15585 -0.75,-2.46329 -0.954,-3.04315 -1.0366,-8.89536 -0.152,-10.75954 1.0008,-2.10903 4.2868,-4.91187 6.5447,-5.58241 2.5495,-0.75709 3.931,-0.74697 7.2459,0.0531 2.5261,0.60965 3.5156,1.11376 4.5059,2.29545 0.2326,0.27745 0.8081,0.92353 1.279,1.43574 2.5692,2.79451 2.5554,10.73328 -0.026,14.93481 -1.0768,1.75283 -1.3881,3.09332 -1.4914,6.4233 -0.025,0.79603 0.3561,1.66892 1.1844,2.71467 1.2126,1.53102 1.406,2.65692 0.508,2.95596 -0.2579,0.0858 -0.4688,-0.0327 -0.4688,-0.26346 0,-0.23074 -0.484,-1.26703 -1.0756,-2.30286 -0.9036,-1.58221 -1.1079,-1.75987 -1.2775,-1.1112 -0.1111,0.42467 -0.067,0.68861 0.098,0.58654 0.1652,-0.10207 0.5713,0.49173 0.9026,1.31957 0.6953,1.73783 0.7145,1.86498 0.2814,1.86498 -0.1764,0 -0.4966,-0.54844 -0.7117,-1.21875 l -0.3909,-1.21875 -0.038,1.21875 c -0.044,1.39901 -0.6945,1.68716 -0.6945,0.30761 0,-1.37403 -1.4699,-3.47229 -2.7434,-3.91623 -0.7416,-0.25854 -1.2657,-0.78489 -1.5265,-1.53317 -0.3266,-0.93679 -0.6028,-1.13946 -1.5527,-1.13946 -1.309,0 -3.6462,-0.75714 -3.6462,-1.1812 0,-0.15429 0.5852,-0.036 1.3005,0.26284 1.8865,0.78826 2.499,0.63538 0.88,-0.21971 -0.76,-0.40145 -1.4941,-0.91147 -1.6313,-1.13337 -0.4388,-0.71012 0.1722,-0.87066 0.8791,-0.23095 1.2873,1.16502 2.9088,1.50138 3.9498,0.81934 1.1394,-0.74657 1.6421,-1.76869 0.6966,-1.4163 -0.3505,0.1306 -0.8581,0.54448 -1.1281,0.91972 -0.3849,0.53485 -0.6482,0.5981 -1.2188,0.29276 -0.9811,-0.5251 -0.9258,-1.09468 0.081,-0.83145 0.5541,0.14488 0.7242,0.0748 0.5404,-0.22261 -0.1475,-0.23874 -0.6099,-0.43407 -1.0274,-0.43407 -0.4455,0 -0.6908,-0.19367 -0.5937,-0.46875 0.1854,-0.5258 0.5215,-0.52392 2.8132,0.0158 1.5565,0.36658 1.6206,0.34474 2.1839,-0.74454 0.673,-1.30149 0.4388,-1.87975 -0.2892,-0.71402 -0.712,1.13999 -3.3108,0.98438 -3.3108,-0.19825 0,-0.3865 0.2785,-0.46396 1.0313,-0.28679 0.5671,0.1335 1.1902,0.26327 1.3846,0.28839 0.1944,0.0251 0.4807,-0.79054 0.6362,-1.81258 0.1768,-1.1621 0.5626,-2.07524 1.0298,-2.4375 0.6908,-0.53566 0.7065,-0.67401 0.2086,-1.83853 -0.4141,-0.96855 -0.6901,-1.1981 -1.1957,-0.9943 -0.3615,0.14574 -1.3323,0.3432 -2.1573,0.4388 -2.7758,0.32165 -3.1828,0.51132 -4.1112,1.9155 -0.5089,0.7696 -1.3611,3.08678 -1.8938,5.14928 -1.0874,4.20976 -1.5829,4.89593 -4.6922,6.49674 -2.1493,1.10661 -2.9565,2.2015 -3.3431,4.53496 -0.1168,0.70494 -0.4488,1.3605 -0.7377,1.4568 -0.4212,0.14039 -0.4784,-0.16694 -0.2888,-1.5503 0.3203,-2.33691 1.4287,-4.57655 2.2329,-4.51179 0.3511,0.0283 0.551,-0.0898 0.4444,-0.26243 -0.245,-0.39635 1.1063,-1.14061 1.7686,-0.9741 0.2727,0.0686 0.359,0.0505 0.1917,-0.0402 -0.1673,-0.0907 -0.07,-0.44274 0.2166,-0.78229 0.4455,-0.52825 1.4001,-3.21585 1.4001,-3.94212 0,-0.13076 -0.1687,-0.23774 -0.375,-0.23774 -0.2063,0 -0.375,0.4933 -0.375,1.09623 0,1.18363 -1.6001,3.40377 -2.4532,3.40377 -1.7586,0 -3.9218,2.71021 -3.9218,4.91361 0,0.38129 -0.3369,1.24578 -0.7486,1.92108 -0.5112,0.83844 -0.749,1.01551 -0.75,0.55837 z m 22.0048,-4.08837 c -0.1197,-0.29915 -0.2086,-0.21029 -0.2266,0.22656 -0.016,0.39531 0.072,0.6168 0.197,0.49219 0.1246,-0.12461 0.1379,-0.44805 0.03,-0.71875 z m -18.8543,-2.98282 c 0.4321,-0.35292 1.2982,-0.73938 1.9247,-0.85882 1.2434,-0.23703 2.5751,-2.00628 2.2155,-2.94336 -0.2616,-0.68178 0.7793,-1.76969 1.6931,-1.76969 0.7774,0 2.5644,-1.3228 2.2346,-1.65413 -0.1197,-0.12027 -1.0234,0.0559 -2.0082,0.39143 -1.3909,0.47393 -1.9025,0.87793 -2.2919,1.81001 -0.6077,1.45439 -1.0719,1.84785 -2.8585,2.423 -1.8385,0.59187 -2.1725,1.07815 -2.3722,3.45316 -0.1521,1.80916 -0.1263,1.90092 0.254,0.90204 0.2328,-0.61159 0.7768,-1.40073 1.2089,-1.75364 z m -0.9551,-0.56551 c 0.2344,-0.45616 1.1706,-1.06383 2.1564,-1.39971 0.9581,-0.32647 1.9684,-0.89184 2.245,-1.25637 0.2766,-0.36453 0.5083,-0.478 0.5149,-0.25215 0.026,0.89158 -1.607,1.89408 -3.2547,1.99818 -0.2498,0.0158 -0.8191,0.40838 -1.2651,0.87244 -0.7917,0.82383 -0.8011,0.82472 -0.3965,0.0376 z m 19.3401,2.39989 c 0.097,-0.46406 0.2668,-2.27813 0.3775,-4.03125 0.1108,-1.75313 0.3067,-4.22336 0.4355,-5.48942 0.1419,-1.3945 0.076,-2.57709 -0.1677,-3 -0.3075,-0.53428 -0.3503,-0.24622 -0.1824,1.22773 0.1781,1.5623 0.044,2.30847 -0.7086,3.95305 -0.7086,1.54778 -0.847,2.2453 -0.5853,2.94919 0.1886,0.50707 0.2309,1.89226 0.094,3.0782 -0.1668,1.44655 -0.1154,2.15625 0.156,2.15625 0.2226,0 0.484,-0.37969 0.5809,-0.84375 z m -1.3133,-3 c 0.015,-0.97969 -0.1423,-1.78125 -0.3486,-1.78125 -0.2156,0 -0.3638,1.07618 -0.3486,2.53125 0.03,2.90893 0.653,2.23908 0.6972,-0.75 z m -1.0986,0.38839 c 0,-1.08423 -0.058,-1.14745 -0.5763,-0.62908 -0.326,0.32602 -0.4714,0.84947 -0.3349,1.20536 0.3979,1.03681 0.9112,0.71217 0.9112,-0.57628 z m 4.294,-5.29099 c 0.123,-0.78861 0.076,-1.34241 -0.1051,-1.23066 -0.5445,0.33653 -1.3133,5.69333 -0.9837,6.85389 0.2533,0.89164 0.3462,0.64241 0.5832,-1.56438 0.155,-1.44375 0.3825,-3.27023 0.5056,-4.05885 z m -13.8436,4.1526 c 0.8229,-1.3606 1.3388,-3.21274 0.9601,-3.44678 -0.3975,-0.24569 -1.8753,2.14581 -2.1382,3.46023 -0.3097,1.54879 0.237,1.54254 1.1781,-0.0135 z m 15.5336,-5.82605 c 1.3178,-4.74472 -0.6483,-11.79703 -3.7336,-13.39251 -2.1521,-1.11287 -8.0345,-1.45778 -10.2384,-0.60031 -1.8843,0.73307 -4.648,3.99904 -5.148,6.08361 -0.457,1.90474 -0.1972,7.45401 0.3489,7.45401 0.1507,0 0.6534,-0.67508 1.1171,-1.50017 0.8326,-1.48127 1.6674,-2.51245 4.103,-5.06802 0.9411,-0.98748 1.5542,-1.30681 2.5091,-1.30681 0.695,0 1.3798,-0.18803 1.5219,-0.41786 0.2812,-0.45509 2.3589,-0.27417 3.9301,0.34224 0.5261,0.2064 1.6628,1.29071 2.526,2.40958 1.5621,2.02476 1.8725,3.08334 1.9334,6.59442 0.027,1.55763 0.6188,1.24453 1.1305,-0.59818 z m -4.484,0.64767 c 0,-0.19408 -0.1687,-0.35287 -0.375,-0.35287 -0.2063,0 -0.375,0.26308 -0.375,0.58463 0,0.32155 0.1687,0.48034 0.375,0.35287 0.2063,-0.12747 0.375,-0.39055 0.375,-0.58463 z m -10.018,-0.87322 c 0.596,-0.14299 1.184,-0.61747 1.3694,-1.10501 0.1786,-0.46993 0.7997,-1.41875 1.3801,-2.10849 0.8905,-1.0584 0.9303,-1.18722 0.2546,-0.82561 -0.5036,0.2695 -0.8466,0.29133 -0.9246,0.0588 -0.068,-0.2033 -0.8834,0.29711 -1.8115,1.11201 -1.2528,1.09997 -1.5089,1.48576 -0.9942,1.49763 0.3813,0.009 1.1829,-0.50811 1.7812,-1.14867 0.5984,-0.64056 1.088,-0.99808 1.088,-0.79449 0,0.79834 -2.3141,2.57075 -3.9158,2.99913 -1.2414,0.33201 -1.6322,0.59939 -1.475,1.00908 0.1829,0.47663 0.358,0.48486 1.2086,0.0568 0.5471,-0.27533 1.4647,-0.61337 2.0392,-0.7512 z m 10.9036,-0.79215 c -0.1187,-0.30938 -0.3665,-0.5625 -0.5507,-0.5625 -0.1842,0 -0.3349,0.25312 -0.3349,0.5625 0,0.30937 0.2478,0.5625 0.5507,0.5625 0.3355,0 0.4664,-0.21986 0.3349,-0.5625 z m -12.8856,-1.24259 c 0,-0.47092 -0.1098,-0.44307 -0.5506,0.13967 -0.7203,0.95234 -0.7275,1.50936 -0.012,0.91542 0.3094,-0.25676 0.5625,-0.73155 0.5625,-1.05509 z m 4.0033,-2.47372 c 0.3763,-0.0298 1.3533,-0.28548 2.171,-0.56831 1.4127,-0.48858 1.4427,-0.53054 0.6019,-0.84157 -0.4867,-0.18004 -1.2022,-0.22665 -1.59,-0.10357 -0.3878,0.12308 -0.6808,0.0845 -0.6512,-0.0857 0.131,-0.75342 -0.091,-0.86849 -0.8704,-0.45131 -0.8114,0.43427 -0.8141,0.45538 -0.094,0.73683 0.7242,0.28294 0.7234,0.29038 -0.032,0.31611 -0.4253,0.0145 -1.1425,0.52578 -1.5938,1.13618 -1.1072,1.49763 -1.0324,1.69428 0.2766,0.72655 0.6033,-0.4461 1.4049,-0.83543 1.7812,-0.86518 z m 9.8912,0.62256 c -0.5944,-1.0216 -1.3905,-1.96875 -1.6546,-1.96875 -0.5481,0 -0.1748,0.84619 0.7524,1.70541 1.173,1.08709 1.4242,1.16043 0.9022,0.26334 z m -4.2039,-1.63796 c 0.7014,-1.12308 0.1196,-1.5455 -2.4185,-1.75597 -2.4809,-0.20574 -2.5764,0.51772 -0.1202,0.91048 1.1051,0.17672 1.3877,0.3533 1.1068,0.69175 -0.2075,0.24995 -0.2662,0.56549 -0.1304,0.7012 0.4608,0.46082 1.0648,0.24916 1.5623,-0.54746 z m 1.3412,0.19159 c 1.0758,-0.41282 0.684,-1.64772 -0.7073,-2.22902 -1.4713,-0.61478 -2.2149,-0.69887 -1.9169,-0.2168 0.111,0.17961 0.7116,0.42852 1.3346,0.55313 1.268,0.25361 1.4129,0.66165 0.5435,1.53102 -0.6077,0.60775 -0.2929,0.76037 0.7461,0.36167 z m -15.5318,20.12475 c 0,-0.40033 0.1824,-0.84061 0.4054,-0.97841 0.223,-0.13781 0.7286,-0.78058 1.1236,-1.42839 0.6487,-1.0638 0.7183,-1.09579 0.7196,-0.33041 8e-4,0.46608 -0.3361,1.1364 -0.7486,1.48959 -0.4125,0.35319 -0.75,0.94217 -0.75,1.30883 0,0.36666 -0.1687,0.66666 -0.375,0.66666 -0.2063,0 -0.375,-0.32754 -0.375,-0.72787 z m 5.4994,-0.0515 c -0.367,-0.42864 -0.6122,-0.94464 -0.5449,-1.14665 0.067,-0.20201 0.5039,0.1487 0.9702,0.77936 0.9499,1.28482 0.6109,1.57755 -0.4253,0.36729 z m 2.7302,0.0674 c 0.5123,-0.95706 1.1454,-1.35113 1.1454,-0.71287 0,0.27194 -0.3476,0.71149 -0.7724,0.97678 -0.7093,0.44301 -0.7398,0.42147 -0.373,-0.26391 z m 3.8296,-0.038 c 0,-0.51563 0.085,-0.72656 0.1892,-0.46875 0.104,0.25781 0.104,0.67969 0,0.9375 -0.1041,0.25781 -0.1892,0.0469 -0.1892,-0.46875 z m 1.0658,-0.31688 c 0,-0.62516 0.3368,-1.36265 0.8136,-1.78125 0.8026,-0.70474 0.8095,-0.70426 0.5095,0.0356 -0.1673,0.4125 -0.3838,1.21406 -0.4812,1.78125 -0.2326,1.35474 -0.8419,1.32896 -0.8419,-0.0356 z m -7.3146,-1.18542 c -1.0025,-1.1078 -0.4658,-1.28203 0.566,-0.18372 0.4836,0.51481 0.7073,0.93602 0.4971,0.93602 -0.2102,0 -0.6886,-0.33853 -1.0631,-0.7523 z m 0.6503,-1.50287 c -0.4685,-0.37983 -0.702,-0.7832 -0.5189,-0.89637 0.3425,-0.21167 1.8007,1.15988 1.5247,1.43406 -0.085,0.0841 -0.5373,-0.15785 -1.0058,-0.53769 z m 4.0763,-11.07776 c -0.7015,-0.30447 -1.18,-0.64904 -1.0634,-0.76571 0.1167,-0.11667 0.5539,-0.0292 0.9715,0.19427 0.4177,0.22352 0.8494,0.26073 0.9594,0.0827 0.2728,-0.44132 -0.1449,-0.80332 -0.9269,-0.80332 -0.8171,0 -1.2698,-1.08439 -0.5655,-1.35466 1.0312,-0.39568 2.6411,0.0268 2.7742,0.72807 0.1632,0.86008 -0.2338,2.5065 -0.5997,2.48691 -0.1508,-0.008 -0.8481,-0.26379 -1.5496,-0.56825 z m 1.838,-2.04207 c 0,-0.20625 -0.5162,-0.375 -1.1471,-0.375 -0.6693,0 -1.0506,0.15622 -0.9154,0.375 0.1275,0.20625 0.6437,0.375 1.1471,0.375 0.5035,0 0.9154,-0.16875 0.9154,-0.375 z m 1.8304,0.66803 c 0.1727,-1.04134 0.2255,-1.09416 0.3436,-0.34353 0.077,0.48785 -0.015,1.04159 -0.204,1.23053 -0.2081,0.20804 -0.2631,-0.14179 -0.1396,-0.887 z"
     id="path3519"
     inkscape:connector-curvature="0"
     inkscape:export-xdpi="1750.5591"
     inkscape:export-ydpi="1750.5591" />
</svg>
